<svg width="18" height="24" viewBox="0 0 18 24" fill="none" xmlns="http://www.w3.org/2000/svg">
<g clip-path="url(#clip0_0_540)">
<path fill-rule="evenodd" clip-rule="evenodd" d="M14.9954 2.99854H13.4963C13.4963 1.34174 11.483 -0.0018 8.99874 -0.0018C6.51445 -0.0018 4.50099 1.34174 4.50099 2.99854H3.00181C1.34584 2.99854 0.003348 4.34124 0.003348 5.99722V20.9952C0.003348 22.6511 1.34584 23.9943 3.00181 23.9943H14.9954C16.6516 23.9943 17.9943 22.6511 17.9943 20.9952V5.99722C17.9943 4.34124 16.6516 2.99854 14.9954 2.99854ZM8.99874 1.49837C10.655 1.49837 11.9971 1.96241 11.9971 2.99854H6.00028C6.00028 1.96241 7.34267 1.49837 8.99874 1.49837ZM16.495 20.9952C16.495 21.8232 15.8235 22.4941 14.9954 22.4941H3.00181C2.17361 22.4941 1.50241 21.8232 1.50241 20.9952V19.4954H16.495V20.9952ZM16.495 17.9952H1.50241V5.99722C1.50241 5.16881 2.17361 4.49746 3.00181 4.49746H4.50099V8.99755H6.00028V4.49746H11.9971V8.99755H13.4963V4.49746H14.9954C15.824 4.49746 16.495 5.16881 16.495 5.99722V17.9952Z" fill="black"/>
<path fill-rule="evenodd" clip-rule="evenodd" d="M14.9954 2.99854H13.4963C13.4963 1.34174 11.483 -0.0018 8.99874 -0.0018C6.51445 -0.0018 4.50099 1.34174 4.50099 2.99854H3.00181C1.34584 2.99854 0.003348 4.34124 0.003348 5.99722V20.9952C0.003348 22.6511 1.34584 23.9943 3.00181 23.9943H14.9954C16.6516 23.9943 17.9943 22.6511 17.9943 20.9952V5.99722C17.9943 4.34124 16.6516 2.99854 14.9954 2.99854ZM8.99874 1.49837C10.655 1.49837 11.9971 1.96241 11.9971 2.99854H6.00028C6.00028 1.96241 7.34267 1.49837 8.99874 1.49837ZM16.495 20.9952C16.495 21.8232 15.8235 22.4941 14.9954 22.4941H3.00181C2.17361 22.4941 1.50241 21.8232 1.50241 20.9952V19.4954H16.495V20.9952ZM16.495 17.9952H1.50241V5.99722C1.50241 5.16881 2.17361 4.49746 3.00181 4.49746H4.50099V8.99755H6.00028V4.49746H11.9971V8.99755H13.4963V4.49746H14.9954C15.824 4.49746 16.495 5.16881 16.495 5.99722V17.9952Z" fill="white"/>
</g>
<defs>
<clipPath id="clip0_0_540">
<rect width="18" height="24" fill="white"/>
</clipPath>
</defs>
</svg>
