<svg width="44" height="44" viewBox="0 0 44 44" fill="none" xmlns="http://www.w3.org/2000/svg">
<path fill-rule="evenodd" clip-rule="evenodd" d="M43.9271 21.85C43.9271 20.2297 42.7606 18.5007 41.3216 17.993C39.8817 17.4833 38.4866 16.2353 38.0813 15.2507C37.6753 14.269 37.7807 12.3957 38.4365 11.0169C39.0924 9.63758 38.695 7.5907 37.5496 6.44283C36.4042 5.29663 34.3569 4.90151 32.9767 5.55751C31.5975 6.21434 29.7269 6.32152 28.7458 5.91479C27.7649 5.50972 26.5174 4.1122 26.0051 2.67309C25.4934 1.23398 23.7639 0.067012 22.1437 0.067012C20.5231 0.067012 18.7942 1.23398 18.282 2.67309C17.7701 4.1122 16.5222 5.50889 15.5413 5.91479C14.5597 6.32152 12.6896 6.21434 11.3104 5.55751C9.9315 4.90151 7.88335 5.29663 6.73746 6.44283C5.59178 7.5907 5.19477 9.63758 5.8509 11.0169C6.5072 12.3966 6.61144 14.2665 6.20391 15.2498C5.79608 16.2315 4.40537 17.4833 2.96604 17.993C1.5264 18.5007 0.359876 20.2297 0.359876 21.85C0.359876 23.4707 1.5264 25.1989 2.96604 25.7107C4.40537 26.2229 5.79788 27.4743 6.20576 28.4539C6.61364 29.4344 6.5072 31.3043 5.8509 32.6831C5.19477 34.0616 5.59178 36.1097 6.73746 37.2551C7.88335 38.4021 9.93023 38.7993 11.3104 38.1425C12.6904 37.4865 14.5597 37.381 15.5413 37.7889C16.5232 38.1961 17.7701 39.5941 18.282 41.0323C18.7942 42.4681 20.5231 43.6334 22.1437 43.6334C23.7639 43.6334 25.4934 42.4681 26.0051 41.0323C26.5174 39.5941 27.7631 38.1965 28.7442 37.786C29.7252 37.378 31.5975 37.4865 32.9767 38.1425C34.3559 38.7993 36.4042 38.4021 37.5496 37.2551C38.695 36.1097 39.0924 34.0616 38.4365 32.6831C37.7807 31.3038 37.6735 29.4331 38.0787 28.4531C38.4849 27.4718 39.8817 26.2229 41.3216 25.7107C42.7606 25.1989 43.9271 23.4707 43.9271 21.85ZM22.1437 29.8419C17.724 29.8419 14.1501 26.2703 14.1501 21.8587C14.1501 17.4401 17.724 13.8651 22.1437 13.8651C26.5544 13.8651 30.1278 17.4401 30.1278 21.8587C30.1278 26.2703 26.5544 29.8419 22.1437 29.8419Z" fill="black"/>
<path fill-rule="evenodd" clip-rule="evenodd" d="M43.9271 21.85C43.9271 20.2297 42.7606 18.5007 41.3216 17.993C39.8817 17.4833 38.4866 16.2353 38.0813 15.2507C37.6753 14.269 37.7807 12.3957 38.4365 11.0169C39.0924 9.63758 38.695 7.5907 37.5496 6.44283C36.4042 5.29663 34.3569 4.90151 32.9767 5.55751C31.5975 6.21434 29.7269 6.32152 28.7458 5.91479C27.7649 5.50972 26.5174 4.1122 26.0051 2.67309C25.4934 1.23398 23.7639 0.067012 22.1437 0.067012C20.5231 0.067012 18.7942 1.23398 18.282 2.67309C17.7701 4.1122 16.5222 5.50889 15.5413 5.91479C14.5597 6.32152 12.6896 6.21434 11.3104 5.55751C9.9315 4.90151 7.88335 5.29663 6.73746 6.44283C5.59178 7.5907 5.19477 9.63758 5.8509 11.0169C6.5072 12.3966 6.61144 14.2665 6.20391 15.2498C5.79608 16.2315 4.40537 17.4833 2.96604 17.993C1.5264 18.5007 0.359876 20.2297 0.359876 21.85C0.359876 23.4707 1.5264 25.1989 2.96604 25.7107C4.40537 26.2229 5.79788 27.4743 6.20576 28.4539C6.61364 29.4344 6.5072 31.3043 5.8509 32.6831C5.19477 34.0616 5.59178 36.1097 6.73746 37.2551C7.88335 38.4021 9.93023 38.7993 11.3104 38.1425C12.6904 37.4865 14.5597 37.381 15.5413 37.7889C16.5232 38.1961 17.7701 39.5941 18.282 41.0323C18.7942 42.4681 20.5231 43.6334 22.1437 43.6334C23.7639 43.6334 25.4934 42.4681 26.0051 41.0323C26.5174 39.5941 27.7631 38.1965 28.7442 37.786C29.7252 37.378 31.5975 37.4865 32.9767 38.1425C34.3559 38.7993 36.4042 38.4021 37.5496 37.2551C38.695 36.1097 39.0924 34.0616 38.4365 32.6831C37.7807 31.3038 37.6735 29.4331 38.0787 28.4531C38.4849 27.4718 39.8817 26.2229 41.3216 25.7107C42.7606 25.1989 43.9271 23.4707 43.9271 21.85ZM22.1437 29.8419C17.724 29.8419 14.1501 26.2703 14.1501 21.8587C14.1501 17.4401 17.724 13.8651 22.1437 13.8651C26.5544 13.8651 30.1278 17.4401 30.1278 21.8587C30.1278 26.2703 26.5544 29.8419 22.1437 29.8419Z" fill="#555555"/>
</svg>
