<svg width="44" height="40" viewBox="0 0 44 40" fill="none" xmlns="http://www.w3.org/2000/svg">
<path fill-rule="evenodd" clip-rule="evenodd" d="M21.8505 0.10552L0.413556 11.6657L21.8505 23.2271L43.2873 11.6657L21.8505 0.10552ZM21.8505 26.9578L4.39872 17.548L0.413556 19.6966L21.8505 31.2534L43.2873 19.6966L39.3023 17.548L21.8505 26.9578ZM4.39872 25.5731L21.8505 34.9846L39.3023 25.5731L43.2873 27.7205L21.8505 39.2832L0.413556 27.7205L4.39872 25.5731Z" fill="black"/>
<path fill-rule="evenodd" clip-rule="evenodd" d="M21.8505 0.10552L0.413556 11.6657L21.8505 23.2271L43.2873 11.6657L21.8505 0.10552ZM21.8505 26.9578L4.39872 17.548L0.413556 19.6966L21.8505 31.2534L43.2873 19.6966L39.3023 17.548L21.8505 26.9578ZM4.39872 25.5731L21.8505 34.9846L39.3023 25.5731L43.2873 27.7205L21.8505 39.2832L0.413556 27.7205L4.39872 25.5731Z" fill="#C7B299"/>
</svg>
