<svg width="52" height="36" viewBox="0 0 52 36" fill="none" xmlns="http://www.w3.org/2000/svg">
<path fill-rule="evenodd" clip-rule="evenodd" d="M14.7419 9.63698C12.4745 9.63698 10.0023 11.187 8.99974 13.2451L0.738504 30.1475V7.98311C0.738504 6.61878 1.8433 5.5008 3.19566 5.50246H14.0124V4.05756C14.0124 3.06256 14.3941 2.13487 15.0937 1.43028C15.7934 0.722772 16.7171 0.334764 17.7006 0.334764H23.9909C26.0195 0.334764 27.6748 2.00153 27.6748 4.05756V5.5008H38.4913C39.8417 5.5008 40.9486 6.61878 40.9486 7.98311V9.63698H14.7419ZM16.8322 3.18305C16.602 3.41737 16.4696 3.72978 16.4696 4.05756V5.50246H25.2174V4.05756C25.2174 3.37 24.6669 2.81538 23.9886 2.81538H17.6983C17.372 2.81538 17.0627 2.94502 16.8322 3.18305ZM38.3784 35.9836C39.7285 35.9836 41.3263 34.9841 41.9213 33.7627L51.4114 14.3406C52.0086 13.1176 51.3944 12.1151 50.0398 12.1151H14.7419C13.3915 12.1151 11.7962 13.1176 11.2032 14.3406L1.71101 33.7627C1.11166 34.9816 1.73025 35.9836 3.08027 35.9836H38.3784Z" fill="black"/>
<path fill-rule="evenodd" clip-rule="evenodd" d="M14.7419 9.63698C12.4745 9.63698 10.0023 11.187 8.99974 13.2451L0.738504 30.1475V7.98311C0.738504 6.61878 1.8433 5.5008 3.19566 5.50246H14.0124V4.05756C14.0124 3.06256 14.3941 2.13487 15.0937 1.43028C15.7934 0.722772 16.7171 0.334764 17.7006 0.334764H23.9909C26.0195 0.334764 27.6748 2.00153 27.6748 4.05756V5.5008H38.4913C39.8417 5.5008 40.9486 6.61878 40.9486 7.98311V9.63698H14.7419ZM16.8322 3.18305C16.602 3.41737 16.4696 3.72978 16.4696 4.05756V5.50246H25.2174V4.05756C25.2174 3.37 24.6669 2.81538 23.9886 2.81538H17.6983C17.372 2.81538 17.0627 2.94502 16.8322 3.18305ZM38.3784 35.9836C39.7285 35.9836 41.3263 34.9841 41.9213 33.7627L51.4114 14.3406C52.0086 13.1176 51.3944 12.1151 50.0398 12.1151H14.7419C13.3915 12.1151 11.7962 13.1176 11.2032 14.3406L1.71101 33.7627C1.11166 34.9816 1.73025 35.9836 3.08027 35.9836H38.3784Z" fill="#555555"/>
</svg>
