<svg width="24" height="24" viewBox="0 0 24 24" fill="none" xmlns="http://www.w3.org/2000/svg">
<g clip-path="url(#clip0_0_546)">
<path fill-rule="evenodd" clip-rule="evenodd" d="M23.7622 22.6814L17.5686 16.5865C19.1901 14.8246 20.1869 12.4935 20.1869 9.92856C20.186 4.44343 15.6677 -0.002232 10.0933 -0.002232C4.51894 -0.002232 0.000576 4.44343 0.000576 9.92856C0.000576 15.4158 4.51894 19.8623 10.0933 19.8623C12.5015 19.8623 14.7107 19.028 16.4459 17.6438L22.6634 23.7633C22.9663 24.0616 23.4581 24.0616 23.7614 23.7633C24.0646 23.4637 24.0646 22.9793 23.7622 22.6814ZM10.0933 18.3338C5.37689 18.3338 1.5533 14.5716 1.5533 9.92856C1.5533 5.28804 5.37689 1.52494 10.0933 1.52494C14.8098 1.52494 18.633 5.28804 18.633 9.92856C18.633 14.5716 14.8098 18.3338 10.0933 18.3338Z" fill="black"/>
<path fill-rule="evenodd" clip-rule="evenodd" d="M23.7622 22.6814L17.5686 16.5865C19.1901 14.8246 20.1869 12.4935 20.1869 9.92856C20.186 4.44343 15.6677 -0.002232 10.0933 -0.002232C4.51894 -0.002232 0.000576 4.44343 0.000576 9.92856C0.000576 15.4158 4.51894 19.8623 10.0933 19.8623C12.5015 19.8623 14.7107 19.028 16.4459 17.6438L22.6634 23.7633C22.9663 24.0616 23.4581 24.0616 23.7614 23.7633C24.0646 23.4637 24.0646 22.9793 23.7622 22.6814ZM10.0933 18.3338C5.37689 18.3338 1.5533 14.5716 1.5533 9.92856C1.5533 5.28804 5.37689 1.52494 10.0933 1.52494C14.8098 1.52494 18.633 5.28804 18.633 9.92856C18.633 14.5716 14.8098 18.3338 10.0933 18.3338Z" fill="white"/>
</g>
<defs>
<clipPath id="clip0_0_546">
<rect width="24" height="24" fill="white"/>
</clipPath>
</defs>
</svg>
