<svg width="181" height="56" viewBox="0 0 181 56" fill="none" xmlns="http://www.w3.org/2000/svg">
<g clip-path="url(#clip0_0_518)">
<path fill-rule="evenodd" clip-rule="evenodd" d="M31.854 -0.00644L26.6003 9.18406H37.1078L31.854 -0.00644ZM37.1078 10.7133H26.6003L31.854 19.9046L37.1078 10.7133ZM25.2863 11.4798L20.0324 20.6711H30.54L25.2863 11.4798ZM38.4217 11.4798L43.6756 20.6711H33.1681L38.4217 11.4798ZM33.1681 22.2016L38.4217 31.3896L43.6756 22.2016H33.1681ZM25.2863 31.3896L20.0324 22.2016H30.54L25.2863 31.3896ZM13.4646 32.154H23.9713L18.7184 22.9668L13.4646 32.154ZM44.9897 22.9668L50.2433 32.154H39.7377L44.9897 22.9668ZM50.2433 33.6861L44.9897 42.8741L39.7377 33.6861H50.2433ZM18.7184 42.8741L23.9713 33.6861H13.4646L18.7184 42.8741ZM17.4037 43.6414H6.89702L12.1507 34.451L17.4037 43.6414ZM56.8111 43.6414L51.5573 34.451L46.3034 43.6414H56.8111ZM51.5573 54.359L46.3034 45.1719H56.8111L51.5573 54.359ZM33.1681 45.1719L38.4217 54.359L43.6756 45.1719H33.1681ZM17.4037 45.1719L12.1507 54.359L6.89702 45.1719H17.4037ZM0.331072 55.1276H10.8358L5.58208 45.9393L0.331072 55.1276ZM37.1078 55.1276H26.6003L31.854 45.9393L37.1078 55.1276ZM39.7377 55.1276H50.2433L44.9897 45.9393L39.7377 55.1276ZM52.8731 55.1276L58.1251 45.9393L63.377 55.1276H52.8731Z" fill="black"/>
<path fill-rule="evenodd" clip-rule="evenodd" d="M31.854 -0.00644L26.6003 9.18406H37.1078L31.854 -0.00644ZM37.1078 10.7133H26.6003L31.854 19.9046L37.1078 10.7133ZM25.2863 11.4798L20.0324 20.6711H30.54L25.2863 11.4798ZM38.4217 11.4798L43.6756 20.6711H33.1681L38.4217 11.4798ZM33.1681 22.2016L38.4217 31.3896L43.6756 22.2016H33.1681ZM25.2863 31.3896L20.0324 22.2016H30.54L25.2863 31.3896ZM13.4646 32.154H23.9713L18.7184 22.9668L13.4646 32.154ZM44.9897 22.9668L50.2433 32.154H39.7377L44.9897 22.9668ZM50.2433 33.6861L44.9897 42.8741L39.7377 33.6861H50.2433ZM18.7184 42.8741L23.9713 33.6861H13.4646L18.7184 42.8741ZM17.4037 43.6414H6.89702L12.1507 34.451L17.4037 43.6414ZM56.8111 43.6414L51.5573 34.451L46.3034 43.6414H56.8111ZM51.5573 54.359L46.3034 45.1719H56.8111L51.5573 54.359ZM33.1681 45.1719L38.4217 54.359L43.6756 45.1719H33.1681ZM17.4037 45.1719L12.1507 54.359L6.89702 45.1719H17.4037ZM0.331072 55.1276H10.8358L5.58208 45.9393L0.331072 55.1276ZM37.1078 55.1276H26.6003L31.854 45.9393L37.1078 55.1276ZM39.7377 55.1276H50.2433L44.9897 45.9393L39.7377 55.1276ZM52.8731 55.1276L58.1251 45.9393L63.377 55.1276H52.8731Z" fill="white"/>
<path d="M78.4483 9.03H80.6923L84.0923 17.598L87.5263 9.03H89.8043L85.5883 19.332L90.2123 30.246L98.9503 8.86H101.534L91.3003 33H89.1923L84.1263 21.066L79.0263 33H76.9523L66.7523 8.86H69.3023L78.0743 30.246L82.6643 19.332L78.4483 9.03ZM99.8739 27.9C99.8739 26.7893 100.191 25.8373 100.826 25.044C101.461 24.228 102.333 23.6047 103.444 23.174C104.577 22.7207 105.881 22.494 107.354 22.494C108.215 22.494 109.111 22.562 110.04 22.698C110.969 22.834 111.797 23.038 112.522 23.31V21.814C112.522 20.318 112.08 19.128 111.196 18.244C110.312 17.36 109.088 16.918 107.524 16.918C106.572 16.918 105.631 17.0993 104.702 17.462C103.795 17.802 102.843 18.312 101.846 18.992L100.962 17.36C102.118 16.5667 103.251 15.9773 104.362 15.592C105.473 15.184 106.606 14.98 107.762 14.98C109.938 14.98 111.661 15.6033 112.93 16.85C114.199 18.0967 114.834 19.8193 114.834 22.018V30.212C114.834 30.5293 114.902 30.7673 115.038 30.926C115.174 31.062 115.389 31.1413 115.684 31.164V33C115.435 33.0227 115.219 33.0453 115.038 33.068C114.857 33.0907 114.721 33.0907 114.63 33.068C114.063 33.0453 113.633 32.864 113.338 32.524C113.043 32.184 112.885 31.8213 112.862 31.436L112.828 30.144C112.035 31.164 111.003 31.9573 109.734 32.524C108.465 33.068 107.173 33.34 105.858 33.34C104.725 33.34 103.693 33.102 102.764 32.626C101.857 32.1273 101.143 31.47 100.622 30.654C100.123 29.8153 99.8739 28.8973 99.8739 27.9ZM111.74 29.26C111.989 28.9427 112.182 28.6367 112.318 28.342C112.454 28.0473 112.522 27.7867 112.522 27.56V24.976C111.751 24.6813 110.947 24.4547 110.108 24.296C109.292 24.1373 108.465 24.058 107.626 24.058C105.971 24.058 104.634 24.3867 103.614 25.044C102.594 25.7013 102.084 26.5967 102.084 27.73C102.084 28.3873 102.254 29.0107 102.594 29.6C102.934 30.1667 103.433 30.6427 104.09 31.028C104.747 31.3907 105.518 31.572 106.402 31.572C107.513 31.572 108.544 31.3567 109.496 30.926C110.471 30.4953 111.219 29.94 111.74 29.26ZM119.013 15.286L124.215 22.222L124.487 22.732L124.759 22.222L129.927 15.286H132.545L125.813 24.194L132.545 33H129.927L124.759 26.098L124.487 25.622L124.215 26.098L119.047 33H116.429L123.127 24.194L116.429 15.286H119.013ZM140.993 33.34C139.724 33.34 138.545 33.102 137.457 32.626C136.392 32.1273 135.462 31.4587 134.669 30.62C133.898 29.7587 133.298 28.784 132.867 27.696C132.436 26.5853 132.221 25.418 132.221 24.194C132.221 22.9247 132.436 21.746 132.867 20.658C133.298 19.5473 133.91 18.5727 134.703 17.734C135.496 16.8727 136.426 16.204 137.491 15.728C138.579 15.2293 139.758 14.98 141.027 14.98C142.296 14.98 143.464 15.2293 144.529 15.728C145.594 16.204 146.524 16.8727 147.317 17.734C148.11 18.5727 148.722 19.5473 149.153 20.658C149.584 21.746 149.799 22.9247 149.799 24.194C149.799 25.418 149.584 26.5853 149.153 27.696C148.722 28.784 148.11 29.7587 147.317 30.62C146.546 31.4587 145.617 32.1273 144.529 32.626C143.464 33.102 142.285 33.34 140.993 33.34ZM134.567 24.228C134.567 25.5427 134.85 26.744 135.417 27.832C136.006 28.8973 136.788 29.7473 137.763 30.382C138.738 30.994 139.814 31.3 140.993 31.3C142.172 31.3 143.248 30.9827 144.223 30.348C145.198 29.7133 145.98 28.852 146.569 27.764C147.158 26.6533 147.453 25.452 147.453 24.16C147.453 22.8453 147.158 21.644 146.569 20.556C145.98 19.468 145.198 18.6067 144.223 17.972C143.248 17.3373 142.172 17.02 140.993 17.02C139.814 17.02 138.738 17.3487 137.763 18.006C136.811 18.6633 136.04 19.536 135.451 20.624C134.862 21.6893 134.567 22.8907 134.567 24.228ZM178.656 33H176.344V23.106C176.344 21.0433 176.015 19.5247 175.358 18.55C174.701 17.5753 173.726 17.088 172.434 17.088C171.097 17.088 169.895 17.564 168.83 18.516C167.787 19.468 167.051 20.692 166.62 22.188V33H164.308V23.106C164.308 21.0207 163.991 19.502 163.356 18.55C162.721 17.5753 161.747 17.088 160.432 17.088C159.117 17.088 157.927 17.5527 156.862 18.482C155.797 19.4113 155.049 20.6353 154.618 22.154V33H152.306V15.286H154.414V19.298C155.162 17.9153 156.114 16.85 157.27 16.102C158.449 15.354 159.752 14.98 161.18 14.98C162.653 14.98 163.843 15.3993 164.75 16.238C165.657 17.0767 166.212 18.176 166.416 19.536C167.232 18.04 168.207 16.9067 169.34 16.136C170.496 15.3653 171.799 14.98 173.25 14.98C174.247 14.98 175.086 15.1613 175.766 15.524C176.469 15.8867 177.024 16.408 177.432 17.088C177.863 17.7453 178.169 18.55 178.35 19.502C178.554 20.4313 178.656 21.474 178.656 22.63V33Z" fill="white"/>
</g>
<defs>
<clipPath id="clip0_0_518">
<rect width="181" height="56" fill="white"/>
</clipPath>
</defs>
</svg>
