<svg width="49" height="49" viewBox="0 0 49 49" fill="none" xmlns="http://www.w3.org/2000/svg">
<path fill-rule="evenodd" clip-rule="evenodd" d="M45.4196 17.4697C46.0394 16.8473 47.0433 16.8473 47.668 17.4697C48.2892 18.0903 48.2892 19.0999 47.668 19.7172L33.4018 33.9852L0.534198 48.4635L15.0109 15.5914L29.2786 1.32717C29.8984 0.705649 30.904 0.705649 31.527 1.32717C32.1482 1.94991 32.1482 2.95485 31.527 3.57553L17.6831 17.4223L9.10665 36.8879L12.1057 39.8866L31.5733 31.3139L45.4196 17.4697ZM28.6201 28.9314C28.2112 28.9314 27.805 28.7735 27.4952 28.4661C26.8754 27.8433 26.8754 26.8363 27.4952 26.2164L40.8269 12.8848C41.4498 12.2604 42.4538 12.2604 43.0767 12.8848C43.6996 13.5055 43.6996 14.5105 43.0767 15.134L29.7452 28.4661C29.4337 28.7735 29.0276 28.9314 28.6201 28.9314ZM24.0151 24.9854C24.3265 25.2933 24.7341 25.4499 25.1399 25.4499C25.549 25.4499 25.955 25.2933 26.2649 24.9854L39.5981 11.6526C40.2194 11.0302 40.2194 10.0232 39.5981 9.40295C38.9738 8.78021 37.9698 8.78021 37.3481 9.40295L24.0151 22.7346C23.3937 23.3544 23.3937 24.3644 24.0151 24.9854ZM21.6592 21.9681C21.2531 21.9681 20.8448 21.8135 20.5341 21.5024C19.9136 20.883 19.9136 19.8734 20.5341 19.2532L33.8666 5.92239C34.4895 5.29837 35.4952 5.29837 36.1165 5.92239C36.7394 6.54224 36.7394 7.54762 36.1165 8.17242L22.7839 21.5024C22.4732 21.8135 22.065 21.9681 21.6592 21.9681Z" fill="#C7B299"/>
<path fill-rule="evenodd" clip-rule="evenodd" d="M45.4196 17.4697C46.0394 16.8473 47.0433 16.8473 47.668 17.4697C48.2892 18.0903 48.2892 19.0999 47.668 19.7172L33.4018 33.9852L0.534198 48.4635L15.0109 15.5914L29.2786 1.32717C29.8984 0.705649 30.904 0.705649 31.527 1.32717C32.1482 1.94991 32.1482 2.95485 31.527 3.57553L17.6831 17.4223L9.10665 36.8879L12.1057 39.8866L31.5733 31.3139L45.4196 17.4697ZM28.6201 28.9314C28.2112 28.9314 27.805 28.7735 27.4952 28.4661C26.8754 27.8433 26.8754 26.8363 27.4952 26.2164L40.8269 12.8848C41.4498 12.2604 42.4538 12.2604 43.0767 12.8848C43.6996 13.5055 43.6996 14.5105 43.0767 15.134L29.7452 28.4661C29.4337 28.7735 29.0276 28.9314 28.6201 28.9314ZM24.0151 24.9854C24.3265 25.2933 24.7341 25.4499 25.1399 25.4499C25.549 25.4499 25.955 25.2933 26.2649 24.9854L39.5981 11.6526C40.2194 11.0302 40.2194 10.0232 39.5981 9.40295C38.9738 8.78021 37.9698 8.78021 37.3481 9.40295L24.0151 22.7346C23.3937 23.3544 23.3937 24.3644 24.0151 24.9854ZM21.6592 21.9681C21.2531 21.9681 20.8448 21.8135 20.5341 21.5024C19.9136 20.883 19.9136 19.8734 20.5341 19.2532L33.8666 5.92239C34.4895 5.29837 35.4952 5.29837 36.1165 5.92239C36.7394 6.54224 36.7394 7.54762 36.1165 8.17242L22.7839 21.5024C22.4732 21.8135 22.065 21.9681 21.6592 21.9681Z" fill="#555555"/>
</svg>
